<?xml version="1.0" encoding="UTF-8" standalone="no"?>
<!DOCTYPE svg PUBLIC "-//W3C//DTD SVG 1.1//EN"
 "http://www.w3.org/Graphics/SVG/1.1/DTD/svg11.dtd">
<!-- Generated by graphviz version 2.50.0 (0)
 -->
<!-- Pages: 1 -->
<svg width="258pt" height="258pt"
 viewBox="0.00 0.00 258.00 258.00" xmlns="http://www.w3.org/2000/svg" xmlns:xlink="http://www.w3.org/1999/xlink">
<g id="graph0" class="graph" transform="scale(1 1) rotate(0) translate(4 254)">
<polygon fill="white" stroke="transparent" points="-4,4 -4,-254 254,-254 254,4 -4,4"/>
<!-- 111 -->
<g id="node1" class="node">
<title>111</title>
<ellipse fill="none" stroke="black" cx="27" cy="-31" rx="27" ry="27"/>
<text text-anchor="middle" x="27" y="-26" font-family="Times New Roman,serif" font-size="20.00">111</text>
</g>
<!-- 110 -->
<g id="node2" class="node">
<title>110</title>
<ellipse fill="none" stroke="black" cx="121" cy="-31" rx="27" ry="27"/>
<text text-anchor="middle" x="121" y="-26" font-family="Times New Roman,serif" font-size="20.00">110</text>
</g>
<!-- 111&#45;&gt;110 -->
<g id="edge1" class="edge">
<title>111&#45;&gt;110</title>
<path fill="none" stroke="black" d="M54.12,-31C63.34,-31 73.89,-31 83.8,-31"/>
<polygon fill="black" stroke="black" points="83.82,-34.5 93.82,-31 83.82,-27.5 83.82,-34.5"/>
</g>
<!-- 100 -->
<g id="node3" class="node">
<title>100</title>
<ellipse fill="none" stroke="red" cx="219" cy="-31" rx="27" ry="27"/>
<ellipse fill="none" stroke="red" cx="219" cy="-31" rx="31" ry="31"/>
<text text-anchor="middle" x="219" y="-26" font-family="Times New Roman,serif" font-size="20.00">100</text>
</g>
<!-- 110&#45;&gt;100 -->
<g id="edge2" class="edge">
<title>110&#45;&gt;100</title>
<path fill="none" stroke="black" d="M148.23,-31C157.3,-31 167.68,-31 177.61,-31"/>
<polygon fill="black" stroke="black" points="177.72,-34.5 187.72,-31 177.72,-27.5 177.72,-34.5"/>
</g>
<!-- 100&#45;&gt;100 -->
<g id="edge4" class="edge">
<title>100&#45;&gt;100</title>
<path fill="none" stroke="black" d="M201.12,-56.46C198.78,-68.93 204.74,-80 219,-80 229.14,-80 235.08,-74.41 236.83,-66.69"/>
<polygon fill="black" stroke="black" points="240.33,-66.48 236.88,-56.46 233.33,-66.44 240.33,-66.48"/>
</g>
<!-- 101 -->
<g id="node4" class="node">
<title>101</title>
<ellipse fill="none" stroke="black" cx="27" cy="-125" rx="27" ry="27"/>
<text text-anchor="middle" x="27" y="-120" font-family="Times New Roman,serif" font-size="20.00">101</text>
</g>
<!-- 000 -->
<g id="node5" class="node">
<title>000</title>
<ellipse fill="none" stroke="black" cx="121" cy="-125" rx="27" ry="27"/>
<text text-anchor="middle" x="121" y="-120" font-family="Times New Roman,serif" font-size="20.00">000</text>
</g>
<!-- 101&#45;&gt;000 -->
<g id="edge3" class="edge">
<title>101&#45;&gt;000</title>
<path fill="none" stroke="black" d="M54.12,-125C63.34,-125 73.89,-125 83.8,-125"/>
<polygon fill="black" stroke="black" points="83.82,-128.5 93.82,-125 83.82,-121.5 83.82,-128.5"/>
</g>
<!-- 010 -->
<g id="node7" class="node">
<title>010</title>
<ellipse fill="none" stroke="black" cx="219" cy="-125" rx="27" ry="27"/>
<text text-anchor="middle" x="219" y="-120" font-family="Times New Roman,serif" font-size="20.00">010</text>
</g>
<!-- 000&#45;&gt;010 -->
<g id="edge8" class="edge">
<title>000&#45;&gt;010</title>
<path fill="none" stroke="black" d="M147.47,-118.96C158.11,-118.24 170.65,-118.07 182.18,-118.45"/>
<polygon fill="black" stroke="black" points="182.25,-121.95 192.41,-118.95 182.59,-114.96 182.25,-121.95"/>
</g>
<!-- 011 -->
<g id="node6" class="node">
<title>011</title>
<ellipse fill="none" stroke="red" cx="121" cy="-201" rx="27" ry="27"/>
<ellipse fill="none" stroke="red" cx="121" cy="-201" rx="31" ry="31"/>
<text text-anchor="middle" x="121" y="-196" font-family="Times New Roman,serif" font-size="20.00">011</text>
</g>
<!-- 011&#45;&gt;011 -->
<g id="edge5" class="edge">
<title>011&#45;&gt;011</title>
<path fill="none" stroke="black" d="M103.76,-226.96C101.76,-239.23 107.51,-250 121,-250 130.49,-250 136.15,-244.67 137.97,-237.25"/>
<polygon fill="black" stroke="black" points="141.48,-237.05 138.24,-226.96 134.48,-236.87 141.48,-237.05"/>
</g>
<!-- 010&#45;&gt;000 -->
<g id="edge6" class="edge">
<title>010&#45;&gt;000</title>
<path fill="none" stroke="black" d="M192.41,-131.05C181.76,-131.77 169.22,-131.93 157.69,-131.55"/>
<polygon fill="black" stroke="black" points="157.64,-128.04 147.47,-131.04 157.29,-135.03 157.64,-128.04"/>
</g>
<!-- 001 -->
<g id="node8" class="node">
<title>001</title>
<ellipse fill="none" stroke="black" cx="27" cy="-201" rx="27" ry="27"/>
<text text-anchor="middle" x="27" y="-196" font-family="Times New Roman,serif" font-size="20.00">001</text>
</g>
<!-- 001&#45;&gt;011 -->
<g id="edge7" class="edge">
<title>001&#45;&gt;011</title>
<path fill="none" stroke="black" d="M54.12,-201C62.14,-201 71.15,-201 79.88,-201"/>
<polygon fill="black" stroke="black" points="79.92,-204.5 89.92,-201 79.92,-197.5 79.92,-204.5"/>
</g>
</g>
</svg>
